PathFileType	4	(X/Y/Z)	E:\Qualisys_Data\Carbon_Farble_Plate\Data\Amateur_Runner\S1\T1\S1T1V13_c3d.trc
DataRate	CameraRate	NumFrames	NumMarkers	Units	OrigDataRate	OrigDataStartFrame	OrigNumFrames
200.000000	200.000000	4	39	mm	200.000000	246	328
Frame#	Time	LSHO			RSHO			LICST			RICST			LASIS			LHEEL			RASIS			LTROC			RTROC			SACR			LTH1			LSK4			LTH2			LTH3			RHM5			LSK2			LTH4			RTH1			LTOE			RTH2			RTH3			RTH4			LLEP			RLEP			LSK1			LSK3			RSK1			LHM5			RSK2			LFT1			RSK3			RSK4			LLME			RLME			RTOE			RHEEL			RFT1			RFT2			LFT2			
		X1	Y1	Z1	X2	Y2	Z2	X3	Y3	Z3	X4	Y4	Z4	X5	Y5	Z5	X6	Y6	Z6	X7	Y7	Z7	X8	Y8	Z8	X9	Y9	Z9	X10	Y10	Z10	X11	Y11	Z11	X12	Y12	Z12	X13	Y13	Z13	X14	Y14	Z14	X15	Y15	Z15	X16	Y16	Z16	X17	Y17	Z17	X18	Y18	Z18	X19	Y19	Z19	X20	Y20	Z20	X21	Y21	Z21	X22	Y22	Z22	X23	Y23	Z23	X24	Y24	Z24	X25	Y25	Z25	X26	Y26	Z26	X27	Y27	Z27	X28	Y28	Z28	X29	Y29	Z29	X30	Y30	Z30	X31	Y31	Z31	X32	Y32	Z32	X33	Y33	Z33	X34	Y34	Z34	X35	Y35	Z35	X36	Y36	Z36	X37	Y37	Z37	X38	Y38	Z38	X39	Y39	Z39	

247	1.23	1237.855590820312	1485.316040039062	-600.2584838867188	1295.27490234375	1492.44091796875	-285.5656433105469	1225.095336914062	1025.357788085938	-547.2550048828125	1242.106689453125	1038.450317382812	-250.2890014648438	1274.28125	988.3220825195312	-524.5565185546875	1279.889038085938	72.49725341796875	-430.9066162109375	1276.43994140625	987.5714721679688	-261.393310546875	1169.718383789062	899.6936645507812	-563.6351928710938	1160.415893554688	908.7800903320312	-220.1521453857422	1116.709106445312	1049.41552734375	-389.3399658203125	1332.0537109375	780.1112670898438	-542.882568359375	1277.065063476562	219.2145538330078	-466.2450866699219	1255.365600585938	749.9912719726562	-566.48779296875	1361.264770507812	681.5130615234375	-527.2340698242188	736.2530517578125	193.5482940673828	-241.6724700927734	1279.667846679688	314.8275146484375	-508.428466796875	1280.3681640625	655.4056396484375	-538.0370483398438	1262.935180664062	759.05078125	-255.3323211669922	1532.383544921875	84.3366470336914	-451.5989379882812	1190.807250976562	768.6348876953125	-224.2646942138672	1246.90869140625	659.3594970703125	-261.1560974121094	1171.071411132812	671.4813232421875	-235.8768005371094	1350.57177734375	520.5675659179688	-502.7185974121094	1152.232421875	500.9750366210938	-266.8094787597656	1364.892944335938	308.5177001953125	-501.6266479492188	1352.229858398438	208.1004791259766	-492.1416320800781	986.105712890625	412.5957946777344	-245.2603759765625	1465.869506835938	59.69976806640625	-503.3000183105469	952.0807495117188	485.2970886230469	-262.8460388183594	1293.384643554688	47.86941528320312	-402.5189819335938	896.5414428710938	367.7428283691406	-254.8092956542969	864.3090209960938	437.9225158691406	-280.6680908203125	1324.88330078125	90.6895751953125	-481.9507446289062	764.7573852539062	338.9010314941406	-254.1984405517578	786.8948974609375	140.6637268066406	-316.9456787109375	709.96533203125	382.8749084472656	-296.8909606933594	688.3491821289062	365.1894836425781	-331.1888122558594	685.1385498046875	368.9571533203125	-273.2295227050781	1286.379150390625	44.77559280395508	-456.2365417480469
248	1.235	1253.961669921875	1479.691162109375	-601.388671875	1309.166015625	1487.619506835938	-285.7443237304688	1237.461791992188	1020.816284179688	-548.028564453125	1255.771484375	1032.93994140625	-250.1841583251953	1287.665893554688	983.8574829101562	-525.2435913085938	1282.765380859375	72.6732406616211	-431.4710388183594	1290.479614257812	982.4744873046876	-261.4516296386719	1183.189575195312	894.434814453125	-563.8984985351562	1175.273071289062	903.06689453125	-220.5157165527344	1129.9501953125	1044.564331054688	-389.1556396484375	1345.841918945312	775.741943359375	-543.4180297851562	1285.66650390625	218.3312225341797	-466.5021057128906	1269.834838867188	745.5993041992188	-567.4681396484375	1375.38134765625	677.2503662109375	-528.3455200195312	754.3578491210938	197.2257843017578	-240.9246520996094	1291.813720703125	313.7719421386719	-507.9680786132812	1294.386352539062	651.1846313476562	-539.328369140625	1279.557983398438	754.6293334960938	-254.3106842041016	1536.870239257812	76.27886199951172	-448.93310546875	1207.619262695312	763.1474609375	-224.3891143798828	1265.456176757812	654.5897827148438	-259.4772644042969	1189.277587890625	665.461669921875	-235.5048065185547	1366.523071289062	516.6026611328125	-503.4080505371094	1174.4541015625	495.2434387207031	-265.7880859375	1376.178955078125	304.7201538085938	-501.7674865722656	1360.672241210938	205.1314849853516	-492.1809692382812	1007.719116210938	409.9044494628906	-244.3735504150391	1470.093383789062	58.82469940185547	-503.404296875	974.8364868164062	483.0665588378906	-262.1235961914062	1295.051879882812	48.06034851074219	-403.1121826171875	916.8629760742188	366.7165832519531	-254.4812316894531	886.2030029296875	437.523193359375	-279.9510803222656	1328.276245117188	89.8573226928711	-483.2713928222656	784.8662109375	341.4890441894531	-254.0068511962891	804.5336303710938	143.1857604980469	-315.457275390625	730.8502807617188	386.1525573730469	-297.2350769042969	709.0482788085938	368.5660705566406	-331.6548156738281	705.5759887695312	372.6972351074219	-273.6581420898438	1288.08740234375	44.46434783935547	-456.7586364746094
249	1.24	1269.760864257812	1473.895141601562	-602.7340698242188	1322.947875976562	1482.3544921875	-285.7222290039062	1250.590698242188	1016.416442871094	-548.4267578125	1269.642944335938	1028.303466796875	-249.9511108398438	1299.793334960938	979.037353515625	-525.85888671875	1285.060424804688	73.9826889038086	-431.6898193359375	1304.114624023438	977.45556640625	-262.4388122558594	1197.025512695312	889.7867431640625	-564.870849609375	1189.826293945312	897.2161865234375	-221.0109710693359	1143.405395507812	1039.801147460938	-389.0026550292969	1359.482543945312	771.0635375976562	-543.8678588867188	1294.278686523438	218.3184204101562	-467.6273803710938	1283.232421875	741.75927734375	-569.189697265625	1388.945556640625	672.7252807617188	-529.8836669921875	773.533935546875	200.4705047607422	-239.4285125732422	1304.119384765625	313.6454162597656	-508.2439575195312	1307.966064453125	646.0084838867188	-541.2286376953125	1296.587646484375	750.3828125	-253.4161071777344	1540.06982421875	73.62168884277344	-447.2987976074219	1223.756958007812	757.6671752929688	-224.0001220703125	1284.463623046875	649.8956909179688	-257.5082702636719	1207.821655273438	659.6757202148438	-234.8831939697266	1383.127807617188	513.4292602539062	-503.5648498535156	1196.1953125	489.6570434570312	-265.1632995605469	1388.050537109375	302.0832214355469	-501.8264465332031	1369.50830078125	203.1861267089844	-492.2023010253906	1029.112915039062	407.2192077636719	-243.3670806884766	1473.624755859375	57.59572982788086	-502.371337890625	998.19287109375	480.6339721679688	-261.7781982421875	1296.466918945312	49.08409881591797	-403.316650390625	938.2015380859376	365.7722778320312	-254.1850433349609	908.625	437.1075134277344	-279.5635986328125	1332.566284179688	89.26526641845703	-483.0200500488281	805.3756103515625	344.0659790039062	-253.8757171630859	822.8504638671875	145.0418395996094	-313.43701171875	752.0213012695312	389.366943359375	-297.4676513671875	730.6260375976562	371.6156921386719	-331.7675170898438	726.8631591796875	376.5222473144531	-273.8836669921875	1287.832641601562	44.31385040283203	-456.4532470703125
250	1.245	1285.786010742188	1468.227172851562	-603.9143676757812	1336.497314453125	1477.880981445312	-285.8580627441406	1263.110595703125	1011.690673828125	-548.99755859375	1283.29638671875	1023.348754882812	-250.0740509033203	1313.322631835938	975.18408203125	-525.7146606445312	1286.984375	75.66069030761719	-431.0162048339844	1317.9580078125	972.79541015625	-262.4573669433594	1210.205078125	884.9287109375	-565.9603881835938	1204.00927734375	891.4618530273438	-221.4956359863281	1156.02880859375	1034.963989257812	-389.2637634277344	1373.259155273438	767.1886596679688	-544.7039794921875	1303.776000976562	219.3096923828125	-469.0637512207031	1296.400634765625	737.74267578125	-569.8192138671875	1402.61474609375	668.0530395507812	-529.8963623046875	793.2984619140625	203.4881134033203	-238.6930847167969	1317.105224609375	314.3462524414062	-509.2901916503906	1321.745239257812	641.787109375	-542.5950317382812	1313.329956054688	746.2026977539062	-252.7095642089844	1542.18505859375	71.75577545166016	-446.6583862304688	1240.167114257812	752.3666381835938	-223.4514465332031	1303.481811523438	645.54736328125	-256.6619873046875	1226.075561523438	653.8855590820312	-234.6084899902344	1400.571411132812	511.0111999511719	-503.3603820800781	1218.769897460938	484.6777038574219	-264.3472595214844	1400.137329101562	300.1334228515625	-501.1642761230469	1378.27392578125	201.872802734375	-491.9967041015625	1051.332153320312	404.3213500976562	-242.6365966796875	1473.05712890625	56.92353057861328	-502.0065002441406	1021.899475097656	478.4267883300781	-261.0607604980469	1297.337890625	49.77178573608398	-403.1374816894531	959.9074096679688	364.7593078613281	-253.9362640380859	931.4224243164062	436.7496948242188	-279.2739562988281	1336.026489257812	89.5197525024414	-482.1125793457031	826.811279296875	346.5660705566406	-254.077392578125	842.5808715820312	147.1347198486328	-311.7077941894531	773.890625	392.1228942871094	-298.1250915527344	752.66552734375	374.4876403808594	-332.250244140625	748.374267578125	379.4679260253906	-274.4830017089844	1288.631103515625	45.80286407470703	-455.5286254882812
